<mxfile host="app.diagrams.net" agent="Mozilla/5.0 (Windows NT 10.0; Win64; x64) AppleWebKit/537.36 (KHTML, like Gecko) Chrome/131.0.0.0 Safari/537.36" version="24.8.8">
  <diagram name="Page-1" id="d2_pALl6pl-PteDp-b0O">
    <mxGraphModel dx="875" dy="479" grid="1" gridSize="10" guides="1" tooltips="1" connect="1" arrows="1" fold="1" page="1" pageScale="1" pageWidth="850" pageHeight="1100" math="0" shadow="0">
      <root>
        <mxCell id="0" />
        <mxCell id="1" parent="0" />
        <mxCell id="vQAd5xrm6njrhwQv4swD-1" value="0" style="swimlane;whiteSpace=wrap;html=1;" vertex="1" parent="1">
          <mxGeometry x="530" y="170" width="200" height="110" as="geometry" />
        </mxCell>
        <mxCell id="vQAd5xrm6njrhwQv4swD-2" value="&lt;font style=&quot;font-size: 14px;&quot;&gt;Recommendation System&lt;/font&gt;" style="text;html=1;align=center;verticalAlign=middle;resizable=0;points=[];autosize=1;strokeColor=none;fillColor=none;" vertex="1" parent="vQAd5xrm6njrhwQv4swD-1">
          <mxGeometry x="10" y="50" width="180" height="30" as="geometry" />
        </mxCell>
        <mxCell id="vQAd5xrm6njrhwQv4swD-3" value="&lt;font style=&quot;font-size: 14px;&quot;&gt;Admin&lt;/font&gt;" style="rounded=0;whiteSpace=wrap;html=1;fillColor=none;" vertex="1" parent="1">
          <mxGeometry x="140" y="120" width="140" height="50" as="geometry" />
        </mxCell>
        <mxCell id="vQAd5xrm6njrhwQv4swD-4" value="&lt;font style=&quot;font-size: 14px;&quot;&gt;Admin&lt;/font&gt;" style="rounded=0;whiteSpace=wrap;html=1;fillColor=none;" vertex="1" parent="1">
          <mxGeometry x="140" y="280" width="140" height="50" as="geometry" />
        </mxCell>
        <mxCell id="vQAd5xrm6njrhwQv4swD-5" value="" style="endArrow=classic;html=1;rounded=0;exitX=1;exitY=0.5;exitDx=0;exitDy=0;" edge="1" parent="1" source="vQAd5xrm6njrhwQv4swD-3">
          <mxGeometry width="50" height="50" relative="1" as="geometry">
            <mxPoint x="400" y="330" as="sourcePoint" />
            <mxPoint x="610" y="170" as="targetPoint" />
            <Array as="points">
              <mxPoint x="610" y="145" />
            </Array>
          </mxGeometry>
        </mxCell>
        <mxCell id="vQAd5xrm6njrhwQv4swD-6" value="" style="endArrow=classic;html=1;rounded=0;exitX=1;exitY=0.5;exitDx=0;exitDy=0;" edge="1" parent="1">
          <mxGeometry width="50" height="50" relative="1" as="geometry">
            <mxPoint x="280" y="317.5" as="sourcePoint" />
            <mxPoint x="660" y="280" as="targetPoint" />
            <Array as="points">
              <mxPoint x="660" y="318" />
            </Array>
          </mxGeometry>
        </mxCell>
        <mxCell id="vQAd5xrm6njrhwQv4swD-7" value="" style="endArrow=classic;html=1;rounded=0;entryX=0.993;entryY=0.4;entryDx=0;entryDy=0;entryPerimeter=0;" edge="1" parent="1" target="vQAd5xrm6njrhwQv4swD-4">
          <mxGeometry width="50" height="50" relative="1" as="geometry">
            <mxPoint x="640" y="280" as="sourcePoint" />
            <mxPoint x="510" y="280" as="targetPoint" />
            <Array as="points">
              <mxPoint x="640" y="300" />
            </Array>
          </mxGeometry>
        </mxCell>
        <mxCell id="vQAd5xrm6njrhwQv4swD-8" value="admin can check logged in users and their IP" style="text;html=1;align=center;verticalAlign=middle;whiteSpace=wrap;rounded=0;" vertex="1" parent="1">
          <mxGeometry x="380" y="110" width="135" height="30" as="geometry" />
        </mxCell>
        <mxCell id="vQAd5xrm6njrhwQv4swD-9" value="bring product to the system" style="text;html=1;align=center;verticalAlign=middle;whiteSpace=wrap;rounded=0;" vertex="1" parent="1">
          <mxGeometry x="358" y="321" width="135" height="30" as="geometry" />
        </mxCell>
        <mxCell id="vQAd5xrm6njrhwQv4swD-10" value="receive verdict from system" style="text;html=1;align=center;verticalAlign=middle;whiteSpace=wrap;rounded=0;" vertex="1" parent="1">
          <mxGeometry x="358" y="268" width="135" height="30" as="geometry" />
        </mxCell>
      </root>
    </mxGraphModel>
  </diagram>
</mxfile>
